Coordinates
version=1
nRows=26
nColumns=22
inDegrees=yes

Units are S.I. units (second, meters, Newtons, ...)
If the header above contains a line with 'inDegrees', this indicates whether rotational values are in degrees (yes) or radians (no).

endheader
time	pelvis_tilt	pelvis_list	pelvis_rotation	pelvis_tx	pelvis_ty	pelvis_tz	hip_flexion_r	hip_adduction_r	hip_rotation_r	knee_angle_r	ankle_angle_r	subtalar_angle_r	hip_flexion_l	hip_adduction_l	hip_rotation_l	knee_angle_l	ankle_angle_l	subtalar_angle_l	lumbar_extension	lumbar_bending	lumbar_rotation
      4.20000000	     -1.38202232	      6.61957586	   -100.14103068	      0.30094067	      0.88566789	      0.29105126	     23.01876904	     -0.80548283	      1.56837284	    -26.43616673	     11.26004544	      0.28118599	     12.81973093	     -5.60119278	    -13.24365664	     -9.80433805	      6.91269317	      7.33030874	     -0.21877119	     -0.59794665	      8.77012616
      4.21000000	     -1.34995576	      6.65342008	    -99.93729814	      0.30050127	      0.88562412	      0.29484467	     22.40191202	     -0.72962298	      2.07830140	    -23.41072169	     10.55230963	      0.06845565	     12.62678270	     -5.53198855	    -13.10763456	     -9.81149652	      7.13997520	      7.38337886	     -0.12533041	     -0.63809958	      8.49675181
      4.22000000	     -1.27458961	      6.68333273	    -99.74378938	      0.29999540	      0.88550664	      0.29871860	     21.80451686	     -0.71084110	      2.57035176	    -20.69941510	      9.62787038	     -0.07253964	     12.42694610	     -5.42241825	    -12.98300925	     -9.81676150	      7.37310867	      7.44344328	      0.01477496	     -0.71394095	      8.25893493
      4.23000000	     -1.16628489	      6.71273748	    -99.56412038	      0.29942077	      0.88531541	      0.30265103	     21.24210666	     -0.73531495	      3.02062248	    -18.34891074	      8.54955200	     -0.11245377	     12.22396386	     -5.28618800	    -12.87494262	     -9.82318017	      7.61763569	      7.51029743	      0.20201310	     -0.81372615	      8.06919787
      4.24000000	     -1.02744622	      6.74315421	    -99.39942275	      0.29878848	      0.88505408	      0.30661028	     20.72072473	     -0.80224668	      3.40990257	    -16.37881800	      7.42169890	     -0.05836596	     12.02418739	     -5.12694027	    -12.78133366	     -9.83652009	      7.87478453	      7.58325958	      0.43323655	     -0.93800078	      7.93412649
      4.25000000	     -0.86298941	      6.75360544	    -99.25257657	      0.29810629	      0.88476444	      0.31059313	     20.22299839	     -0.91359176	      3.70385421	    -14.80556737	      6.38419911	      0.05865995	     11.80338134	     -4.94585985	    -12.70082573	     -9.85609387	      8.13935053	      7.67066266	      0.67964685	     -1.08206081	      7.85573597
      4.26000000	     -0.68614546	      6.75589568	    -99.12839913	      0.29736789	      0.88444675	      0.31459003	     19.75407385	     -1.05386562	      3.88351143	    -13.60928518	      5.55884204	      0.19405314	     11.56858792	     -4.75831764	    -12.64019396	     -9.87379586	      8.40988515	      7.75938211	      0.94920502	     -1.23101410	      7.84048359
      4.27000000	     -0.50230033	      6.74021815	    -99.03035170	      0.29657962	      0.88413213	      0.31860785	     19.29673771	     -1.22014302	      3.93445893	    -12.75404795	      5.03874784	      0.31106263	     11.30479575	     -4.56724439	    -12.60485154	     -9.88374543	      8.67554017	      7.84765888	      1.22612244	     -1.37719875	      7.88330668
      4.28000000	     -0.32616932	      6.66852940	    -98.95578063	      0.29572026	      0.88389584	      0.32262024	     18.79973886	     -1.39768007	      3.87413351	    -12.17771928	      4.85328093	      0.40386962	     10.97920956	     -4.38359705	    -12.58024316	     -9.90382984	      8.94763832	      7.94661592	      1.45466737	     -1.52056408	      7.99939848
      4.29000000	     -0.17337359	      6.56795544	    -98.91265764	      0.29477683	      0.88371537	      0.32661414	     18.29017099	     -1.55690097	      3.73672193	    -11.81956349	      4.95806738	      0.44060844	     10.61410088	     -4.22890502	    -12.58488852	     -9.92476092	      9.23695656	      8.04044395	      1.65870434	     -1.63465134	      8.17618748
      4.30000000	     -0.07402830	      6.44727214	    -98.90205689	      0.29372964	      0.88362702	      0.33056725	     17.75421186	     -1.65643809	      3.57753005	    -11.57384370	      5.21265144	      0.42372992	     10.21363680	     -4.13666976	    -12.61314774	     -9.94137264	      9.52009042	      8.12539140	      1.83746130	     -1.68635840	      8.41181790
      4.31000000	     -0.03735732	      6.30309570	    -98.92026041	      0.29259895	      0.88365903	      0.33445928	     17.18553054	     -1.68671203	      3.42767697	    -11.37848754	      5.53221150	      0.37126717	      9.78283070	     -4.11518427	    -12.66493116	     -9.96987791	      9.80442644	      8.19781723	      1.97723847	     -1.66640203	      8.69547944
      4.32000000	     -0.06658426	      6.14748096	    -98.96528391	      0.29141072	      0.88380638	      0.33827694	     16.59816801	     -1.64343640	      3.31315385	    -11.19550874	      5.85473500	      0.31199069	      9.33376836	     -4.16626723	    -12.73261964	    -10.00574559	     10.08824200	      8.25632658	      2.08654615	     -1.56525519	      9.01283945
      4.33000000	     -0.15602946	      5.98912228	    -99.03180562	      0.29018584	      0.88405991	      0.34200432	     16.00642436	     -1.53428290	      3.25140175	    -11.00919660	      6.14801870	      0.27241916	      8.87655591	     -4.28298023	    -12.79455515	    -10.04426307	     10.35483024	      8.30396230	      2.17172325	     -1.39042450	      9.35490447
      4.34000000	     -0.29379853	      5.85651719	    -99.11715722	      0.28896324	      0.88436061	      0.34564786	     15.45347898	     -1.37241686	      3.21278185	    -10.82800006	      6.39574521	      0.28234985	      8.45655242	     -4.45855683	    -12.90121636	    -10.11189275	     10.62956186	      8.32235789	      2.26701272	     -1.14421590	      9.70113259
      4.35000000	     -0.46726008	      5.76293586	    -99.21375941	      0.28774854	      0.88466481	      0.34913600	     14.97356605	     -1.16693436	      3.21928268	    -10.68250985	      6.61444982	      0.32932333	      8.10586231	     -4.68349444	    -12.99203191	    -10.22724310	     10.90367848	      8.31612296	      2.37949426	     -0.84442027	     10.05727339
      4.36000000	     -0.65769964	      5.66385023	    -99.30707020	      0.28656100	      0.88506538	      0.35266693	     14.43428551	     -0.95485639	      3.24229470	    -10.42408681	      6.74208310	      0.42398659	      7.71676505	     -4.91573524	    -13.10059818	    -10.28452005	     11.12986963	      8.32597210	      2.48679302	     -0.51968821	     10.36288044
      4.37000000	     -0.85245713	      5.60986473	    -99.38944279	      0.28540893	      0.88541713	      0.35607038	     13.96877785	     -0.73352518	      3.28187986	    -10.19351525	      6.86246195	      0.53043259	      7.40777829	     -5.16261792	    -13.17866278	    -10.38417396	     11.34653632	      8.32924021	      2.62830070	     -0.18048154	     10.65137345
      4.38000000	     -1.04892069	      5.59164385	    -99.45700487	      0.28427650	      0.88572096	      0.35936957	     13.55244727	     -0.50433469	      3.32635389	     -9.96880068	      6.96330219	      0.61782416	      7.16614214	     -5.42043344	    -13.23635500	    -10.52255594	     11.56162639	      8.32200625	      2.79647552	      0.16479950	     10.91931985
      4.39000000	     -1.23396647	      5.57905291	    -99.49366995	      0.28316868	      0.88601598	      0.36266346	     13.11115151	     -0.29148567	      3.35328773	     -9.68204028	      7.03859378	      0.69842868	      6.93448758	     -5.66390972	    -13.28209577	    -10.64908855	     11.75559671	      8.32928467	      2.97253851	      0.49223633	     11.12689189
      4.40000000	     -1.40314343	      5.57379320	    -99.50316164	      0.28206854	      0.88626567	      0.36589467	     12.67447253	     -0.09412833	      3.36482332	     -9.38208281	      7.12015178	      0.75169887	      6.72944135	     -5.89261329	    -13.29774045	    -10.78621042	     11.94066680	      8.34236558	      3.15179885	      0.79283236	     11.29787776
      4.41000000	     -1.55966829	      5.56347762	    -99.48112006	      0.28098293	      0.88647685	      0.36908093	     12.21948368	      0.08735547	      3.35186745	     -9.05446030	      7.19952329	      0.77803697	      6.53364495	     -6.10633518	    -13.29265130	    -10.92649092	     12.12431372	      8.36302706	      3.32119652	      1.06610517	     11.43181224
      4.42000000	     -1.70335062	      5.54331040	    -99.43041300	      0.27991784	      0.88664895	      0.37221573	     11.74448779	      0.25103193	      3.31462711	     -8.70427219	      7.28481272	      0.77765224	      6.33719939	     -6.30306168	    -13.26694913	    -11.06108735	     12.30650881	      8.39160954	      3.47363553	      1.31235978	     11.53263621
      4.43000000	     -1.83726091	      5.51321719	    -99.35498404	      0.27884070	      0.88677981	      0.37527050	     11.25562615	      0.40402116	      3.26060150	     -8.34150087	      7.37815710	      0.75736598	      6.14398100	     -6.49078068	    -13.21495790	    -11.19841870	     12.49230660	      8.42363228	      3.60598184	      1.52617222	     11.61138302
      4.44000000	     -1.95971612	      5.47752545	    -99.25843852	      0.27780813	      0.88686341	      0.37823239	     10.76662920	      0.54041507	      3.19025656	     -7.97726090	      7.47846785	      0.72517979	      5.95653153	     -6.66340239	    -13.14186842	    -11.33269869	     12.67534796	      8.45920435	      3.71982359	      1.71807133	     11.67189183
      4.45000000	     -2.07501062	      5.43404447	    -99.14794001	      0.27681238	      0.88692220	      0.38112591	     10.27419197	      0.66538446	      3.10183589	     -7.61295127	      7.57791066	      0.67686713	      5.75322581	     -6.82301306	    -13.06597039	    -11.43221768	     12.83612591	      8.51151275	      3.81614357	      1.89407994	     11.70842405
